<svg xmlns="http://www.w3.org/2000/svg" xmlns:xlink="http://www.w3.org/1999/xlink" viewBox="0 0 75 112.5" version="1.1" x="0px" y="0px">
                        <g stroke="none" stroke-width="1" fill="none" fill-rule="evenodd" sketch:type="MSPage"><path d="M0,3.99793926 C0,1.78993837 1.79833109,0 4.00581045,0 L70.9941896,0 C73.2065376,0 75,1.79778412 75,3.99793926 L75,86.0020607 C75,88.2100616 73.2016689,90 70.9941896,90 L4.00581045,90 C1.79346243,90 0,88.2022159 0,86.0020607 L0,3.99793926 Z M61.9665737,25.0819672 C63.5555943,25.0819672 64.84375,23.7608402 64.84375,22.1311475 C64.84375,20.5014548 63.5555943,19.1803279 61.9665737,19.1803279 L13.0334263,19.1803279 C11.4444057,19.1803279 10.15625,20.5014548 10.15625,22.1311475 C10.15625,23.7608402 11.4444057,25.0819672 13.0334263,25.0819672 L61.9665737,25.0819672 Z M61.9665737,39.8360656 C63.5555943,39.8360656 64.84375,38.5149386 64.84375,36.8852459 C64.84375,35.2555532 63.5555943,33.9344262 61.9665737,33.9344262 L13.0334263,33.9344262 C11.4444057,33.9344262 10.15625,35.2555532 10.15625,36.8852459 C10.15625,38.5149386 11.4444057,39.8360656 13.0334263,39.8360656 L61.9665737,39.8360656 Z M55.1554129,56.5541569 C55.1554129,57.0810916 54.9601024,57.5289794 54.5694754,57.8978337 L39.4188058,72.2040398 L36.5728237,74.8913934 C36.1821967,75.2602477 35.7078711,75.4446721 35.1498326,75.4446721 C34.5917941,75.4446721 34.1174685,75.2602477 33.7268415,74.8913934 L30.8808594,72.2040398 L23.3055246,65.0509368 C22.9148976,64.6820825 22.7195871,64.2341947 22.7195871,63.70726 C22.7195871,63.1803252 22.9148976,62.7324374 23.3055246,62.3635831 L26.1515067,59.6762295 C26.5421336,59.3073752 27.0164593,59.1229508 27.5744978,59.1229508 C28.1325363,59.1229508 28.6068619,59.3073752 28.9974888,59.6762295 L35.1498326,65.5054157 L48.8775112,52.5231265 C49.2681381,52.1542722 49.7424637,51.9698478 50.3005022,51.9698478 C50.8585407,51.9698478 51.3328664,52.1542722 51.7234933,52.5231265 L54.5694754,55.2104801 C54.9601024,55.5793344 55.1554129,56.0272222 55.1554129,56.5541569 Z" fill="#ffffff" sketch:type="MSShapeGroup"/></g></svg>