<svg xmlns="http://www.w3.org/2000/svg" xmlns:xlink="http://www.w3.org/1999/xlink" version="1.1" id="Capa_1" x="0px" y="0px" viewBox="0 0 768 1024" enable-background="new 0 0 768 1024" xml:space="preserve">
<path fill="#ffffff" d="M628.909,609.891c-35.716-72.903-91.033-117.274-226.647-117.274h-14.157H374.34c-49.322,0-105.677,6.154-147.59,19.384  c-108,26.5-128,418.123-128,418.123h109.667l20.659-250.982c0.435,6.096,5.118,250.982,5.118,250.982h307.98l6.64-213.903  l20.748,213.903h99.688C656.506,796.742,639.413,631.291,628.909,609.891z M322.175,928.166h-70.011l238.624-427.277  c23.147,4.683,42.498,12.339,58.83,21.111L322.175,928.166z"/>
<path fill="#ffffff" d="M533.628,337.065c0,80.414-65.11,145.474-145.415,145.474h-0.117c-0.108,0-0.108,0-0.209,0  c-80.196,0-145.364-65.06-145.364-145.474c0-15.571,3.102-30.381,7.567-44.371h138.006H526.06  C530.643,306.685,533.628,321.495,533.628,337.065z"/>
<polygon fill="#ffffff" points="538.093,156.537 526.068,270.208 388.104,270.208 250.09,270.208 238.057,156.537 388.104,117.877 "/>
</svg>