<svg xmlns="http://www.w3.org/2000/svg" xmlns:xlink="http://www.w3.org/1999/xlink" version="1.1" x="0px" y="0px" viewBox="0 0 100 125" enable-background="new 0 0 100 100" xml:space="preserve"><path fill="#ffffff" d="M62.642,5.45C59.239,4.994,50.695,5,50.695,5h-0.598c0,0-8.552-0.006-11.95,0.45  c-5.94,0.808-10.481,0.713-10.481,12.19c0,3.884,0,62.091,0,67.835c0,5.748,4.84,9.524,11.216,9.524s11.216,0,11.216,0h0.598  c0,0,4.84,0,11.216,0c6.372,0,11.208-3.776,11.208-9.524c0-5.744,0-63.951,0-67.835C73.119,6.164,68.59,6.258,62.642,5.45z   M45.863,7.87h8.566c0.303,0,0.553,0.246,0.553,0.558c0,0.299-0.25,0.552-0.553,0.552h-8.566c-0.307,0-0.557-0.253-0.557-0.552  C45.307,8.116,45.557,7.87,45.863,7.87z M55.485,91.174c0,0.466-0.382,0.855-0.851,0.855h-8.469c-0.477,0-0.859-0.39-0.859-0.855  v-1.218c0-0.466,0.383-0.852,0.859-0.852h8.469c0.469,0,0.851,0.386,0.851,0.852V91.174z M69.597,83.005H30.795V15.082h38.802  V83.005z"/></svg>